<svg width="204" height="52" viewBox="0 0 204 52" fill="none" xmlns="http://www.w3.org/2000/svg">
<path d="M28.4267 16.64C28.3111 16.64 28.1956 16.7556 28.08 16.8711C19.76 33.1645 8.08889 46.3378 4.04445 50.7289C3.58223 51.1911 3.92889 52 4.62223 52H4.73778C10.7467 51.0756 17.3333 49.3422 17.3333 49.3422C17.3333 49.3422 21.7245 40.2134 25.5378 28.4267C26.8089 24.4978 27.8489 20.8 28.7733 17.2178C28.8889 16.8711 28.6578 16.64 28.4267 16.64Z" fill="#42566C"/>
<path d="M32.9333 0.231111C32.8178 0.115556 32.7022 0 32.5867 0C32.24 0 31.8933 0.115556 31.8933 0.577778C31.7778 23.2267 19.5289 48.9956 19.5289 48.9956C29.3511 47.1467 37.9022 42.7556 40.4444 41.3689C40.9067 41.1378 41.2533 40.6756 41.3689 40.0978C45.4133 17.7956 36.0533 4.04444 32.9333 0.231111Z" fill="#EC351C"/>
<path d="M57.7775 10.8334H60.0764V16.0139H65.8785V10.8334H68.1775V22.9667H65.8785V17.9225H60.0764V22.9667H57.7775V10.8334Z" fill="#42566C"/>
<path d="M74.8797 21.8012C76.1508 21.8012 77.0752 20.5357 77.0752 19.4108V19.1296H76.613C75.3419 19.1296 73.3774 19.2702 73.3774 20.5357C73.493 21.2388 73.9552 21.8012 74.8797 21.8012ZM76.7285 17.7235H77.0752V17.5829C77.0752 16.458 76.2663 16.0362 75.2263 16.0362C73.8396 16.0362 72.5685 16.8798 72.5685 16.8798L71.6441 15.3331C71.6441 15.3331 73.1463 14.2083 75.4574 14.2083C77.9997 14.2083 79.5019 15.4737 79.5019 17.7235V23.3479H77.3063V22.6449C77.3063 22.223 77.3063 21.9418 77.3063 21.9418C77.3063 21.9418 76.613 23.4885 74.4174 23.4885C72.6841 23.4885 71.1819 22.5042 71.1819 20.6763C71.0663 17.8641 75.1108 17.7235 76.7285 17.7235Z" fill="#42566C"/>
<path d="M82.0441 14.3487H84.3552V15.333C84.3552 15.6142 84.3552 15.8954 84.3552 15.8954C84.8174 15.0518 85.973 14.0675 87.4752 14.0675C88.9774 14.0675 89.9018 14.7706 90.2485 15.8954C90.8263 14.9112 91.9818 14.0675 93.4841 14.0675C95.4485 14.0675 96.6041 15.1924 96.6041 17.4421V23.2072H94.1774V17.864C94.1774 16.8797 93.9463 16.036 92.9063 16.036C91.6352 16.036 90.8263 17.0203 90.5952 18.1452C90.4796 18.567 90.4796 18.8482 90.4796 19.2701V23.2072H88.053V17.864C88.053 16.8797 87.9374 16.036 86.7818 16.036C85.5107 16.036 84.7018 17.0203 84.4707 18.1452C84.3552 18.4264 84.3552 18.8482 84.3552 19.2701V23.2072H82.0441V14.3487Z" fill="#42566C"/>
<path d="M99.3779 14.2416H101.689V22.9667H99.3779V14.2416ZM99.3779 10.8334H101.689V12.742H99.3779V10.8334Z" fill="#42566C"/>
<path d="M105.156 10.8334H107.582V20.2542C107.582 21.2385 107.929 21.5197 108.507 21.5197C108.738 21.5197 108.853 21.5197 108.853 21.5197V23.4883C108.853 23.4883 108.507 23.4883 108.044 23.4883C106.773 23.4883 105.04 23.2071 105.04 20.5355L105.156 10.8334Z" fill="#42566C"/>
<path d="M111.511 16.3173H110.24V14.4894H111.511V11.9584H113.822V14.4894H116.018V16.3173H113.822V19.8325C113.822 21.3792 115.093 21.5199 115.671 21.5199C115.902 21.5199 116.133 21.5199 116.133 21.5199V23.4884C116.133 23.4884 115.902 23.4884 115.44 23.4884C114.053 23.4884 111.395 23.0666 111.395 20.1138L111.511 16.3173Z" fill="#42566C"/>
<path d="M123.529 21.6602C125.031 21.6602 126.418 20.5353 126.418 18.848C126.418 17.1607 125.147 16.0358 123.529 16.0358C121.911 16.0358 120.64 17.1607 120.64 18.848C120.64 20.5353 121.911 21.6602 123.529 21.6602ZM123.413 14.2079C126.302 14.2079 128.729 16.1764 128.729 18.848C128.729 21.6602 126.418 23.4881 123.413 23.4881C120.524 23.4881 118.098 21.5196 118.098 18.848C118.213 16.1764 120.524 14.2079 123.413 14.2079Z" fill="#42566C"/>
<path d="M130.924 14.3487H133.235V15.333C133.235 15.6142 133.235 15.8954 133.235 15.8954C133.697 15.1924 134.737 14.0675 136.586 14.0675C138.666 14.0675 139.937 15.0518 139.937 17.4421V23.2072H137.511V17.864C137.511 16.7391 137.164 16.036 136.009 16.036C134.737 16.036 133.813 16.7391 133.466 17.864C133.351 18.2858 133.351 18.7076 133.351 19.1295V23.2072H130.924V14.3487Z" fill="#42566C"/>
<path d="M149.067 10.8334H146.756V22.9667H149.067V10.8334Z" fill="#42566C"/>
<path d="M152.995 20.6762C152.995 20.6762 154.036 21.6604 155.653 21.6604C156.347 21.6604 156.924 21.3792 156.924 20.8168C156.924 19.4107 152.302 19.6919 152.302 16.7391C152.302 15.0518 153.92 14.0675 156 14.0675C158.196 14.0675 159.236 15.0518 159.236 15.0518L158.311 16.7391C158.311 16.7391 157.387 15.8954 156 15.8954C155.422 15.8954 154.729 16.1767 154.729 16.7391C154.729 18.0046 159.351 17.864 159.351 20.6762C159.351 22.2229 157.964 23.3478 155.653 23.3478C153.227 23.3478 151.956 22.0823 151.956 22.0823L152.995 20.6762Z" fill="#42566C"/>
<path d="M161.547 10.8334H163.973V20.2542C163.973 21.2385 164.32 21.5197 164.898 21.5197C165.129 21.5197 165.244 21.5197 165.244 21.5197V23.4883C165.244 23.4883 164.898 23.4883 164.435 23.4883C163.164 23.4883 161.431 23.2071 161.431 20.5355L161.547 10.8334Z" fill="#42566C"/>
<path d="M171.253 21.8008C172.524 21.8008 173.449 20.5353 173.449 19.4105V19.1292H172.986C171.715 19.1292 169.751 19.2698 169.751 20.5353C169.866 21.2384 170.328 21.8008 171.253 21.8008ZM173.102 17.7231H173.449V17.5825C173.449 16.4576 172.64 16.0358 171.6 16.0358C170.213 16.0358 168.942 16.8795 168.942 16.8795L168.017 15.3328C168.017 15.3328 169.52 14.2079 171.831 14.2079C174.373 14.2079 175.875 15.4734 175.875 17.7231V23.3475H173.68V22.6445C173.68 22.2227 173.68 21.9414 173.68 21.9414C173.68 21.9414 172.986 23.4881 170.791 23.4881C169.057 23.4881 167.555 22.5039 167.555 20.6759C167.44 17.8637 171.484 17.7231 173.102 17.7231Z" fill="#42566C"/>
<path d="M178.533 14.3487H180.844V15.333C180.844 15.6142 180.844 15.8954 180.844 15.8954C181.307 15.1924 182.347 14.0675 184.195 14.0675C186.275 14.0675 187.547 15.0518 187.547 17.4421V23.2072H185.12V17.864C185.12 16.7391 184.773 16.036 183.618 16.036C182.347 16.036 181.422 16.7391 181.075 17.864C180.96 18.2858 180.96 18.7076 180.96 19.1295V23.2072H178.533V14.3487Z" fill="#42566C"/>
<path d="M194.595 21.6603C195.867 21.6603 197.022 20.8167 197.022 18.8481C197.022 17.442 196.213 16.0359 194.595 16.0359C193.324 16.0359 192.169 17.0202 192.169 18.8481C192.169 20.5355 193.209 21.6603 194.595 21.6603ZM194.133 14.208C196.213 14.208 196.907 15.3329 196.907 15.3329C196.907 15.3329 196.907 15.0517 196.907 14.7705V10.8334H199.333V23.3477H197.022V22.6446C197.022 22.3634 197.022 22.0822 197.022 22.0822C197.022 22.0822 196.213 23.6289 194.018 23.6289C191.475 23.6289 189.742 21.6603 189.742 18.9888C189.858 16.0359 191.591 14.208 194.133 14.208Z" fill="#42566C"/>
<path d="M62.0532 34.034C63.3243 34.034 64.1332 33.331 64.1332 32.0655C64.1332 30.8 63.5554 30.097 61.7065 30.097H59.8576V34.034H62.0532ZM57.431 28.1284H61.7065C63.2087 28.1284 63.7865 28.269 64.3643 28.5502C65.751 29.1127 66.5599 30.3782 66.5599 31.9249C66.5599 33.4716 65.751 34.8777 64.2487 35.2995C64.2487 35.2995 64.4799 35.4401 64.711 35.862L67.4843 40.5021H64.8265L62.1687 35.862H59.8576V40.5021H57.431V28.1284Z" fill="#EC351C"/>
<path d="M72.7997 39.0959C74.0708 39.0959 74.9952 37.8304 74.9952 36.7055V36.4243H74.533C73.2619 36.4243 71.2974 36.5649 71.2974 37.8304C71.413 38.5334 71.8752 39.0959 72.7997 39.0959ZM74.6485 35.0182H74.9952V34.8776C74.9952 33.7527 74.1863 33.3309 73.1463 33.3309C71.7597 33.3309 70.4885 34.1745 70.4885 34.1745L69.5641 32.6278C69.5641 32.6278 71.0663 31.5029 73.3774 31.5029C75.9197 31.5029 77.4219 32.7684 77.4219 35.0182V40.6426H75.1108V39.9395C75.1108 39.5177 75.1108 39.2365 75.1108 39.2365C75.1108 39.2365 74.4174 40.7832 72.2219 40.7832C70.4885 40.7832 68.9863 39.7989 68.9863 37.971C68.9863 35.1588 73.0308 35.0182 74.6485 35.0182Z" fill="#EC351C"/>
<path d="M84.3553 31.5029C86.8975 31.5029 88.0531 32.909 88.0531 32.909L87.0131 34.4557C87.0131 34.4557 85.9731 33.4715 84.4708 33.4715C82.7375 33.4715 81.5819 34.737 81.5819 36.2837C81.5819 37.8304 82.7375 39.0959 84.5864 39.0959C86.2042 39.0959 87.3597 37.971 87.3597 37.971L88.2842 39.5177C88.2842 39.5177 86.8975 40.9238 84.3553 40.9238C81.1197 40.9238 79.1553 38.8146 79.1553 36.2837C79.1553 33.6121 81.1197 31.5029 84.3553 31.5029Z" fill="#EC351C"/>
<path d="M96.8353 35.0182C96.8353 33.7527 96.0264 33.1902 94.9864 33.1902C93.7153 33.1902 92.9064 33.8933 92.6753 35.0182H96.8353ZM94.9864 31.5029C97.7597 31.5029 99.2619 33.3309 99.2619 35.7212C99.2619 36.0024 99.1464 36.5649 99.1464 36.5649H92.5597C92.6753 38.1116 94.0619 38.9553 95.4486 38.9553C96.9508 38.9553 98.2219 37.971 98.2219 37.971L99.1464 39.5177C99.1464 39.5177 97.6442 40.7832 95.3331 40.7832C92.0975 40.7832 90.1331 38.674 90.1331 36.1431C90.1331 33.3309 92.0975 31.5029 94.9864 31.5029Z" fill="#EC351C"/>
<path d="M116.018 36.8462C116.249 37.5493 116.249 38.1117 116.249 38.1117C116.249 38.1117 116.249 37.5493 116.48 36.8462L118.676 28.1284H121.218L117.751 40.6427H114.978L112.898 33.1904C112.667 32.3467 112.551 31.5031 112.551 31.5031C112.551 31.5031 112.436 32.3467 112.204 33.1904L110.124 40.6427H107.351L104 28.1284H106.542L108.622 36.8462C108.738 37.5493 108.853 38.1117 108.853 38.1117C108.853 38.1117 108.853 37.5493 109.084 36.8462L111.511 28.1284H113.591L116.018 36.8462Z" fill="#EC351C"/>
<path d="M128.036 35.0182C128.036 33.7527 127.227 33.1902 126.187 33.1902C124.916 33.1902 124.107 33.8933 123.876 35.0182H128.036ZM126.187 31.5029C128.96 31.5029 130.462 33.3309 130.462 35.7212C130.462 36.0024 130.347 36.5649 130.347 36.5649H123.76C123.876 38.1116 125.262 38.9553 126.649 38.9553C128.151 38.9553 129.422 37.971 129.422 37.971L130.347 39.5177C130.347 39.5177 128.844 40.7832 126.533 40.7832C123.298 40.7832 121.333 38.674 121.333 36.1431C121.333 33.3309 123.298 31.5029 126.187 31.5029Z" fill="#EC351C"/>
<path d="M139.129 35.0182C139.129 33.7527 138.32 33.1902 137.28 33.1902C136.009 33.1902 135.2 33.8933 134.969 35.0182H139.129ZM137.28 31.5029C140.053 31.5029 141.555 33.3309 141.555 35.7212C141.555 36.0024 141.44 36.5649 141.44 36.5649H134.853C134.969 38.1116 136.355 38.9553 137.742 38.9553C139.244 38.9553 140.515 37.971 140.515 37.971L141.44 39.5177C141.44 39.5177 139.938 40.7832 137.626 40.7832C134.391 40.7832 132.426 38.674 132.426 36.1431C132.426 33.3309 134.506 31.5029 137.28 31.5029Z" fill="#EC351C"/>
<path d="M143.289 27.8201H145.69V35.0183H147.011L149.412 31.5691H152.173L148.932 35.918L152.533 41.1667H149.652L147.011 36.9678H145.69V41.1667H143.289V27.8201Z" fill="#EC351C"/>
</svg>
