<?xml version="1.0" encoding="utf-8"?>
<!-- Generator: Adobe Illustrator 25.4.1, SVG Export Plug-In . SVG Version: 6.00 Build 0)  -->
<svg version="1.1" id="Layer_1" xmlns="http://www.w3.org/2000/svg" xmlns:xlink="http://www.w3.org/1999/xlink" x="0px" y="0px"
	 viewBox="0 0 38.5 52" style="enable-background:new 0 0 38.5 52;" xml:space="preserve">
<style type="text/css">
	.st0{fill:#42566C;}
	.st1{fill:#EC351C;}
</style>
<path class="st0" d="M24.6,16.6c-0.1,0-0.2,0.1-0.3,0.2c-8.3,16.3-20,29.5-24,33.9C-0.3,51.2,0.1,52,0.8,52h0.1
	c6-0.9,12.6-2.7,12.6-2.7s4.4-9.1,8.2-20.9c1.3-3.9,2.3-7.6,3.2-11.2C25.1,16.9,24.8,16.6,24.6,16.6z"/>
<path class="st1" d="M29.1,0.2C29,0.1,28.9,0,28.8,0c-0.3,0-0.7,0.1-0.7,0.6C27.9,23.2,15.7,49,15.7,49c9.8-1.8,18.4-6.2,20.9-7.6
	c0.5-0.2,0.8-0.7,0.9-1.3C41.6,17.8,32.2,4,29.1,0.2z"/>
</svg>
